<svg width="66" height="49" viewBox="0 0 66 49" fill="none" xmlns="http://www.w3.org/2000/svg">
<g filter="url(#filter0_d_187_978)">
<rect x="16.2109" y="0.354675" width="49" height="48" rx="14" fill="#1E4AE9"/>
<path d="M30.959 25.0106C29.6235 23.2963 28.7449 21.2364 28.62 19.067C28.6043 18.8425 28.6004 18.6121 28.6004 18.3817C28.6004 17.8526 28.6356 17.3313 28.7059 16.8217C28.7664 16.3921 28.3661 16.0465 27.9503 16.1676L25.6463 16.8314C25.3906 16.9056 25.2109 17.1419 25.2109 17.4054V40.1479C25.2109 40.5482 25.5956 40.8332 25.9763 40.7219L34.5594 38.2423C34.8152 38.1681 34.9948 37.9318 34.9948 37.6683V30.3817C34.9948 30.247 34.9499 30.1161 34.8699 30.0127L30.9669 25.0043L30.959 25.0106Z" fill="white"/>
<path d="M43.1441 33.0974L40.6743 36.2604C40.4341 36.5708 39.9694 36.5708 39.7293 36.2604L37.2594 33.0974C36.9099 32.6483 36.1855 32.8982 36.1855 33.4664V37.715C36.1855 37.9747 36.3496 38.205 36.5995 38.2851L43.4272 40.505C43.8177 40.63 44.2121 40.341 44.2121 39.9349V33.4666C44.2121 32.8965 43.4916 32.6466 43.1383 33.0976L43.1441 33.0974Z" fill="white"/>
<path d="M31.984 24.7546L32.1344 24.9401C32.1598 24.9694 32.1793 25.0006 32.2047 25.0299L39.7412 34.3823C39.9813 34.683 40.4362 34.683 40.6764 34.3823L48.2129 25.0299C48.2383 25.0006 48.2578 24.9694 48.2832 24.9401L48.4335 24.7546H48.4238C49.7983 22.9896 50.6223 20.7814 50.6223 18.3717C50.6223 12.2428 45.323 7.3499 39.0556 8.02568C34.3072 8.5411 30.4489 12.3543 29.8826 17.0967C29.537 19.9961 30.3922 22.6808 32.0011 24.7486H31.9913L31.984 24.7546ZM40.2058 12.4637C43.4703 12.4637 46.1139 15.1074 46.1139 18.3717C46.1139 21.6361 43.4702 24.2798 40.2058 24.2798C36.9415 24.2798 34.2978 21.6361 34.2978 18.3717C34.2978 15.1074 36.9415 12.4637 40.2058 12.4637Z" fill="white"/>
<path d="M54.4355 14.1841L51.9012 14.9183C51.5868 15.0081 51.4111 15.3322 51.4912 15.6485C51.702 16.5232 51.8153 17.433 51.8153 18.3722C51.8153 18.6065 51.8094 18.8427 51.7957 19.0712C51.6649 21.2403 50.7863 23.3002 49.4508 25.0147L45.5517 30.013C45.4717 30.1185 45.4268 30.2473 45.4268 30.382V39.9744C45.4268 40.3746 45.8114 40.6597 46.1921 40.5484L54.7753 38.0688C55.031 37.9946 55.2107 37.7583 55.2107 37.4947V14.7583C55.2107 14.358 54.826 14.0729 54.4453 14.1843L54.4355 14.1841ZM53.346 35.8959C53.346 36.2259 53.0766 36.4953 52.7466 36.4953C52.4166 36.4953 52.1472 36.2259 52.1472 35.8959V31.2822C52.1472 30.9522 52.4166 30.6828 52.7466 30.6828C53.0766 30.6828 53.346 30.9522 53.346 31.2822V35.8959ZM53.346 27.7406C53.346 28.0706 53.0766 28.34 52.7466 28.34C52.4166 28.34 52.1472 28.0706 52.1472 27.7406V26.0302C52.1472 25.7003 52.4166 25.4308 52.7466 25.4308C53.0766 25.4308 53.346 25.7003 53.346 26.0302V27.7406Z" fill="white"/>
</g>
<defs>
<filter id="filter0_d_187_978" x="0.210938" y="-9.64532" width="81" height="80" filterUnits="userSpaceOnUse" color-interpolation-filters="sRGB">
<feFlood flood-opacity="0" result="BackgroundImageFix"/>
<feColorMatrix in="SourceAlpha" type="matrix" values="0 0 0 0 0 0 0 0 0 0 0 0 0 0 0 0 0 0 127 0" result="hardAlpha"/>
<feOffset dy="6"/>
<feGaussianBlur stdDeviation="8"/>
<feComposite in2="hardAlpha" operator="out"/>
<feColorMatrix type="matrix" values="0 0 0 0 0.0745098 0 0 0 0 0.172549 0 0 0 0 0.290196 0 0 0 0.02 0"/>
<feBlend mode="normal" in2="BackgroundImageFix" result="effect1_dropShadow_187_978"/>
<feBlend mode="normal" in="SourceGraphic" in2="effect1_dropShadow_187_978" result="shape"/>
</filter>
</defs>
</svg>
